<?xml version="1.0" standalone="no"?>
<!DOCTYPE svg PUBLIC "-//W3C//DTD SVG 20010904//EN"
 "http://www.w3.org/TR/2001/REC-SVG-20010904/DTD/svg10.dtd">
<svg version="1.0" xmlns="http://www.w3.org/2000/svg"
 width="260.000000pt" height="260.000000pt" viewBox="0 0 260.000000 260.000000"
 preserveAspectRatio="xMidYMid meet">
<metadata>
Created by potrace 1.14, written by Peter Selinger 2001-2017
</metadata>
<g transform="translate(0.000000,260.000000) scale(0.100000,-0.100000)"
fill="#000000" stroke="none">
<path d="M553 1900 c-27 -11 -24 -7 -173 -270 -174 -307 -180 -319 -182 -343
0 -12 57 -123 127 -247 70 -124 141 -250 158 -280 54 -102 25 -95 405 -95 268
0 335 3 341 14 6 9 -32 85 -116 230 -69 119 -144 249 -167 288 -27 48 -50 76
-68 84 -31 13 -143 8 -158 -7 -11 -11 5 -43 113 -227 122 -206 120 -212 -54
-212 l-121 0 -32 37 c-17 20 -44 63 -61 95 -16 32 -41 78 -56 103 -95 162
-102 176 -103 215 0 30 9 56 40 105 23 36 76 124 118 195 57 98 84 133 104
141 21 7 404 12 469 5 27 -3 65 -60 213 -319 125 -220 159 -272 174 -270 28 4
99 124 92 154 -4 16 -252 443 -345 594 -8 13 -60 15 -353 17 -189 0 -353 -3
-365 -7z"/>
<path d="M1442 1898 c-11 -11 -9 -17 116 -233 41 -71 83 -146 94 -165 83 -145
110 -190 123 -200 14 -12 158 -16 175 -5 14 8 -1 40 -81 177 -121 207 -121
207 -115 232 8 31 30 36 151 36 80 0 104 -4 122 -18 36 -29 243 -400 243 -436
0 -12 -12 -41 -26 -66 -15 -25 -35 -61 -46 -80 -97 -169 -164 -273 -184 -286
-19 -13 -62 -16 -250 -16 -208 0 -229 2 -253 20 -23 16 -82 111 -184 292 -16
30 -47 82 -66 115 -20 33 -45 77 -56 98 -31 59 -54 81 -71 66 -19 -16 -84
-126 -84 -142 0 -15 334 -585 355 -606 12 -13 69 -15 365 -15 336 -1 351 0
368 19 32 35 335 579 335 602 0 12 -24 64 -53 115 -29 51 -61 108 -72 126 -10
17 -28 49 -39 70 -12 20 -41 71 -64 112 -102 184 -105 189 -133 194 -54 10
-659 5 -670 -6z"/>
</g>
</svg>
